<?xml version="1.0" encoding="UTF-8" standalone="no"?>
<!-- Created with Inkscape (http://www.inkscape.org/) -->

<svg
   xmlns:dc="http://purl.org/dc/elements/1.1/"
   xmlns:cc="http://creativecommons.org/ns#"
   xmlns:rdf="http://www.w3.org/1999/02/22-rdf-syntax-ns#"
   xmlns:svg="http://www.w3.org/2000/svg"
   xmlns="http://www.w3.org/2000/svg"
   xmlns:sodipodi="http://sodipodi.sourceforge.net/DTD/sodipodi-0.dtd"
   xmlns:inkscape="http://www.inkscape.org/namespaces/inkscape"
   width="200mm"
   height="200mm"
   viewBox="0 0 200 200"
   version="1.1"
   id="svg8"
   inkscape:version="0.92.4 5da689c313, 2019-01-14"
   sodipodi:docname="student.svg">
  <defs
     id="defs2" />
  <sodipodi:namedview
     id="base"
     pagecolor="#ffffff"
     bordercolor="#666666"
     borderopacity="1.0"
     inkscape:pageopacity="0.0"
     inkscape:pageshadow="2"
     inkscape:zoom="0.5"
     inkscape:cx="400"
     inkscape:cy="404.60255"
     inkscape:document-units="mm"
     inkscape:current-layer="layer1"
     showgrid="false"
     inkscape:window-width="1920"
     inkscape:window-height="1023"
     inkscape:window-x="0"
     inkscape:window-y="27"
     inkscape:window-maximized="1" />
  <metadata
     id="metadata5">
    <rdf:RDF>
      <cc:Work
         rdf:about="">
        <dc:format>image/svg+xml</dc:format>
        <dc:type
           rdf:resource="http://purl.org/dc/dcmitype/StillImage" />
        <dc:title></dc:title>
      </cc:Work>
    </rdf:RDF>
  </metadata>
  <g
     inkscape:label="Layer 1"
     inkscape:groupmode="layer"
     id="layer1"
     transform="translate(0,-97)">
    <path
       style="fill:#000000;stroke-width:0.3926515"
       d="m 95.986191,279.49058 c -6.752919,-1.45038 -15.673881,-5.556 -22.378291,-10.299 -5.158615,-3.64943 -10.64034,-9.22115 -13.909988,-14.13838 -2.584127,-3.88626 -5.512825,-9.91474 -5.999957,-12.35041 -0.195237,-0.97619 -0.637902,-1.34751 -2.720114,-2.28175 -7.33984,-3.29316 -14.014452,-10.0019 -16.694957,-16.7803 -1.14616,-2.89841 -1.256431,-9.53078 -0.223311,-13.43154 1.645239,-6.21195 5.68456,-11.52509 10.320766,-13.57544 l 2.012345,-0.88995 0.25605,-2.48543 c 0.140826,-1.36699 0.366465,-3.22747 0.501408,-4.1344 0.228772,-1.53756 0.176056,-1.66638 -0.780079,-1.90635 L 45.344627,186.96027 45.241226,174.00508 45.137815,161.0499 34.928882,157.94435 C 22.956754,154.30244 12.330336,150.82 9.0138738,149.45161 c -2.2551444,-0.93049 -7.6567026,-4.58042 -7.6567026,-5.17379 0,-0.35033 4.5724809,-3.66532 6.2578749,-4.53687 2.7830339,-1.43916 19.5269139,-7.17218 38.8970499,-13.31814 14.101163,-4.47416 46.414412,-14.38415 49.651425,-15.22733 4.963999,-1.29304 2.937839,-1.7642 35.161299,8.17628 30.40505,9.3795 52.43906,16.59745 59.8161,19.59469 2.05713,0.83579 8.09015,4.77097 8.1062,5.28746 0.004,0.11357 -1.22844,1.13059 -2.73771,2.26005 -2.60103,1.94647 -5.75422,3.43068 -10.60603,4.9923 -2.90028,0.93348 -2.83256,0.8598 -2.09698,2.28157 1.55269,3.00106 1.7975,4.95569 1.99062,15.89324 l 0.18915,10.71289 1.51879,0.77483 c 3.75339,1.91483 5.89837,5.34044 6.16783,9.85021 0.21584,3.61254 -0.3522,5.60474 -3.12062,10.94452 -1.68127,3.24284 -6.86754,11.02102 -8.31744,12.47415 -0.98094,0.98314 -9.54756,-12.29694 -11.31846,-17.546 -2.23872,-6.6357 -0.22784,-12.62565 5.25083,-15.64094 l 1.96116,-1.07937 -0.19831,-9.81629 c -0.20285,-10.04062 -0.45646,-11.8911 -1.87726,-13.69737 -1.04457,-1.32794 -2.02305,-1.31046 -6.65628,0.11888 -2.04302,0.63027 -5.52569,1.69801 -7.73926,2.37277 l -4.02468,1.22684 v 13.29071 13.29073 l -1.03067,0.25868 c -0.96212,0.24148 -1.01436,0.36836 -0.78532,1.90767 0.13495,0.90693 0.36027,2.76417 0.50073,4.12719 l 0.25538,2.47822 2.27053,1.14616 c 4.44316,2.2429 7.99626,6.9195 9.83207,12.941 1.18638,3.89137 1.28241,10.15524 0.20466,13.35015 -1.16657,3.45823 -3.68552,7.37483 -6.68974,10.40157 -3.35328,3.37841 -5.72779,5.04156 -9.60324,6.72628 l -2.9082,1.26425 -0.75561,2.28901 c -4.11197,12.45666 -14.2268,23.4098 -28.19855,30.53564 -9.74207,4.96863 -17.71731,6.61508 -24.738319,5.10713 z m 9.342019,-7.85901 c 5.7109,-1.16345 13.56339,-4.80047 19.56991,-9.06417 8.58851,-6.0965 14.95678,-15.07841 17.42453,-24.57583 0.49067,-1.88839 1.08815,-3.58954 1.32773,-3.78033 0.23959,-0.19078 1.40743,-0.42633 2.5952,-0.52344 3.26159,-0.26665 6.38683,-1.9891 9.82807,-5.41663 4.71846,-4.69967 6.11242,-8.14901 5.44412,-13.47139 -0.71401,-5.6864 -3.99208,-10.40979 -7.78972,-11.22423 -1.1132,-0.23874 -2.4354,-0.43407 -2.93823,-0.43407 -1.38332,0 -1.67016,-0.66462 -1.94878,-4.5155 -0.37228,-5.14539 -1.06734,-9.22839 -1.56954,-9.22007 -0.24032,0.004 -10.64097,2.36561 -23.11257,5.24807 l -22.67562,5.24085 -22.675624,-5.24085 c -12.471599,-2.88246 -22.872254,-5.2441 -23.112571,-5.24807 -0.483337,-0.008 -1.173227,3.97045 -1.530734,8.82742 -0.370632,5.03509 -0.197929,4.76009 -3.181184,5.06573 -3.00828,0.30821 -4.173785,0.83084 -5.922281,2.65564 -3.369839,3.51688 -4.781678,11.11735 -2.925115,15.747 0.712377,1.7764 3.37371,5.13504 5.7404,7.24444 2.889597,2.57545 5.650125,4.04618 9.038456,4.81539 l 2.748015,0.62386 1.051449,3.79064 c 3.272992,11.7997 10.775973,20.94086 22.903547,27.90427 5.534642,3.17787 13.68683,6.02193 17.587712,6.13583 0.60299,0.0176 2.45827,-0.24545 4.12283,-0.58456 z M 74.640579,223.37685 c -5.230465,-1.86461 -6.944382,-8.4721 -3.28012,-12.64546 3.940165,-4.4876 10.743674,-3.44756 13.279722,2.03005 1.437144,3.10406 0.591874,6.72293 -2.128096,9.11109 -2.269488,1.99264 -5.024679,2.51918 -7.871506,1.50432 z m 48.296131,0 c -1.93556,-0.69002 -3.68479,-2.33404 -4.61027,-4.33299 -2.96453,-6.40306 4.01017,-13.38361 10.44951,-10.45829 4.17719,1.89766 6.00422,7.02293 3.93198,11.0302 -0.81679,1.57949 -3.10869,3.44805 -4.80808,3.91997 -1.93838,0.5383 -3.1129,0.50069 -4.96314,-0.15889 z m 60.93899,-25.83066 c 1.87428,-3.82118 2.30407,-5.74702 1.64025,-7.34962 -1.06478,-2.57063 -4.33592,-3.20268 -6.31784,-1.22075 -1.73219,1.73218 -1.58679,3.70062 0.60612,8.20622 0.96463,1.98193 1.91783,3.60352 2.11822,3.60352 0.20038,0 1.07935,-1.45771 1.95325,-3.23937 z m -58.44065,-11.40049 24.14807,-5.58169 0.1056,-8.96164 c 0.0992,-8.41911 0.0635,-8.94836 -0.58897,-8.74213 -1.83173,0.57888 -33.01492,9.5581 -39.73683,11.44222 -4.19657,1.1763 -8.35441,2.13871 -9.23964,2.13871 -1.175987,0 -33.797138,-9.03021 -46.256704,-12.80482 -0.652149,-0.19757 -0.688366,0.31642 -0.58898,8.35858 l 0.105902,8.56908 23.951748,5.55902 c 13.173456,3.05748 23.951734,5.56924 23.951734,5.58169 0,0.0125 10.86663,-2.48909 24.14807,-5.55902 z m -4.48078,-23.46333 c 27.83555,-7.99056 36.88814,-10.71194 36.29295,-10.91034 -0.2897,-0.0966 -13.34725,-3.04979 -29.01678,-6.56272 -28.02377,-6.28261 -28.507945,-6.40714 -29.581862,-7.60907 -1.520721,-1.70197 -1.479512,-3.50995 0.116374,-5.10584 0.830074,-0.83007 1.598048,-1.2124 2.454068,-1.22173 0.68526,-0.008 17.19235,3.55366 36.68245,7.91363 l 35.43652,7.92721 2.86511,-0.83249 c 1.5758,-0.45787 3.56372,-1.13098 4.4176,-1.49581 l 1.5525,-0.66331 -13.93914,-4.62536 c -12.65826,-4.20034 -32.62021,-10.48206 -57.32711,-18.03994 -5.07502,-1.55246 -9.84574,-2.82446 -10.6016,-2.82666 -1.437821,-0.004 -3.539033,0.60911 -29.448856,8.59562 -29.211992,9.0044 -52.222657,16.49933 -52.222657,17.00975 0,0.61775 28.397209,9.13085 75.781745,22.71836 2.26756,0.65023 4.84523,1.19563 5.728158,1.21203 0.96778,0.0179 9.23243,-2.15968 20.81053,-5.48333 z"
       id="path206"
       inkscape:connector-curvature="0" />
  </g>
</svg>
