<?xml version="1.0" encoding="iso-8859-1"?>
<!-- Generator: Adobe Illustrator 19.0.0, SVG Export Plug-In . SVG Version: 6.00 Build 0)  -->
<svg version="1.1" id="Layer_1" xmlns="http://www.w3.org/2000/svg" xmlns:xlink="http://www.w3.org/1999/xlink" x="0px" y="0px"
	 viewBox="0 0 512 512" style="enable-background:new 0 0 512 512;" xml:space="preserve">
<g>
	<g>
		<g>
			<path d="M57.128,495.832h-1.078c-4.465,0-8.084,3.619-8.084,8.084c0,4.466,3.62,8.084,8.084,8.084h1.078
				c4.465,0,8.084-3.618,8.084-8.084C65.213,499.45,61.593,495.832,57.128,495.832z"/>
			<path d="M324.985,161.684h-10.779c-4.466,0-8.084,3.619-8.084,8.084s3.618,8.084,8.084,8.084h10.779
				c4.466,0,8.084-3.619,8.084-8.084S329.451,161.684,324.985,161.684z"/>
			<path d="M303.966,355.705h-1.078c-4.466,0-8.084,3.618-8.084,8.084c0,4.466,3.619,8.084,8.084,8.084h1.078
				c4.466,0,8.084-3.618,8.084-8.084C312.051,359.324,308.432,355.705,303.966,355.705z"/>
			<path d="M217.735,161.684c-4.465,0-8.084,3.619-8.084,8.084s3.62,8.084,8.084,8.084h10.779c4.465,0,8.084-3.619,8.084-8.084
				s-3.62-8.084-8.084-8.084H217.735z"/>
			<path d="M455.949,495.832h-25.331v-45.81c0-28.93-10.721-56.632-30.186-78.003c-17.673-19.401-41.182-32.135-66.824-36.339
				v-4.226c0-9.483-7.043-17.334-16.168-18.648v-24.584c50.295-18.664,86.232-67.133,86.232-123.843
				c0-19.524-4.264-38.07-11.903-54.762c-0.164-0.462-0.377-0.912-0.63-1.347c-2.231-4.733-4.735-9.313-7.492-13.719
				c9.456-10.418,14.636-23.756,14.636-37.96C398.282,25.387,372.895,0,341.693,0c-22.635,0-42.732,13.29-51.725,33.616
				c-5.995-0.836-12.116-1.279-18.338-1.279c-29.559,0-56.879,9.764-78.908,26.234c-0.552,0.326-1.048,0.714-1.493,1.144
				c-31.381,24.162-51.641,62.089-51.641,104.665c0,56.709,35.937,105.179,86.232,123.843v24.584
				c-9.125,1.315-16.168,9.164-16.168,18.648v4.226c-25.643,4.203-49.152,16.938-66.824,36.339
				c-19.467,21.371-30.186,49.073-30.186,78.003v45.81H89.465c-4.465,0-8.084,3.619-8.084,8.084c0,4.466,3.62,8.084,8.084,8.084
				h366.484c4.466,0,8.084-3.618,8.084-8.084C464.034,499.45,460.415,495.832,455.949,495.832z M341.693,16.168
				c22.289,0,40.421,18.132,40.421,40.421c0,8.95-2.872,17.421-8.186,24.401c-17.173-21.029-40.688-36.68-67.599-44.018
				C313.344,24.28,326.744,16.168,341.693,16.168z M271.629,48.505c44.159,0,82.623,24.834,102.174,61.265
				c-6.037,4.049-12.439,7.528-19.108,10.368c-1.354,0.577-2.463,1.482-3.288,2.581c-4.427-2.633-9.591-4.151-15.105-4.151h-26.947
				c-8.251,0-15.723,3.392-21.102,8.852c-34.665-6.378-64.483-28.283-81.082-59.284C225.612,55.744,247.791,48.505,271.629,48.505z
				 M349.777,148.21v32.337c0,7.43-6.044,13.474-13.474,13.474h-26.947c-7.43,0-13.474-6.044-13.474-13.474V148.21
				c0-7.43,6.044-13.474,13.474-13.474h26.947C343.733,134.737,349.777,140.781,349.777,148.21z M261.082,136.397
				c6.209,2.439,12.632,4.415,19.226,5.896c-0.389,1.913-0.595,3.891-0.595,5.918v13.474h-16.168V148.21
				C263.545,144.013,262.662,140.019,261.082,136.397z M247.377,148.21v32.337c0,7.43-6.044,13.474-13.474,13.474h-26.947
				c-7.43,0-13.474-6.044-13.474-13.474V148.21c0-7.43,6.044-13.474,13.474-13.474h26.947
				C241.333,134.737,247.377,140.781,247.377,148.21z M155.756,164.379c0-34.184,14.884-64.954,38.507-86.182
				c8.931,15.872,20.939,29.562,35.133,40.371h-22.44c-16.345,0-29.642,13.298-29.642,29.642v32.337
				c0,16.344,13.297,29.642,29.642,29.642h26.947c16.345,0,29.642-13.298,29.642-29.642v-2.695h16.168v2.695
				c0,16.344,13.298,29.642,29.642,29.642h26.947c16.344,0,29.642-13.298,29.642-29.642V148.21c0-5-1.249-9.713-3.446-13.85
				c6.234-2.745,12.257-5.978,18.004-9.661c4.527,12.384,7,25.748,7,39.679c0,63.892-51.982,115.874-115.874,115.874
				C207.736,280.253,155.756,228.271,155.756,164.379z M301.272,293.064v19.525h-59.284v-19.525
				c9.532,2.195,19.454,3.357,29.642,3.357C281.818,296.421,291.74,295.259,301.272,293.064z M414.45,495.832h-48.505V460.8
				c0-4.466-3.618-8.084-8.084-8.084c-4.466,0-8.084,3.619-8.084,8.084v35.032H193.482V460.8c0-4.466-3.62-8.084-8.084-8.084
				c-4.465,0-8.084,3.619-8.084,8.084v35.032h-48.505v-45.81c0-48.454,34.175-89.074,80.842-97.919v0.909
				c0,10.401,8.463,18.863,18.863,18.863h43.116c4.466,0,8.084-3.618,8.084-8.084c0-4.466-3.618-8.084-8.084-8.084h-43.116
				c-1.485,0-2.695-1.208-2.695-2.695v-10.244v-0.535v-10.779c0-1.486,1.209-2.695,2.695-2.695h86.232
				c1.486,0,2.695,1.208,2.695,2.695v11.314c0,4.155,3.151,7.634,7.285,8.044c51.151,5.079,89.725,47.73,89.725,99.211V495.832z"/>
			<path d="M301.742,239.836c2.979-3.326,2.697-8.437-0.628-11.416c-3.326-2.979-8.437-2.695-11.416,0.628
				c-4.604,5.14-11.189,8.089-18.068,8.089c-6.879,0-13.464-2.948-18.069-8.089c-2.979-3.325-8.09-3.609-11.415-0.628
				c-3.325,2.979-3.608,8.09-0.628,11.416c7.666,8.56,18.641,13.469,30.112,13.469S294.074,248.395,301.742,239.836z"/>
		</g>
	</g>
</g>
<g>
</g>
<g>
</g>
<g>
</g>
<g>
</g>
<g>
</g>
<g>
</g>
<g>
</g>
<g>
</g>
<g>
</g>
<g>
</g>
<g>
</g>
<g>
</g>
<g>
</g>
<g>
</g>
<g>
</g>
</svg>
